<svg xmlns="http://www.w3.org/2000/svg" viewBox="0 0 243 64" width="243" height="64" role="img" aria-label="Bento">
  <g transform="translate(0 60) scale(0.84848)"><path d="M37.900 0L6.900 0L6.900-66L35.400-66Q41.600-66 46.550-64.950Q51.500-63.900 55-61.750Q58.500-59.600 60.350-56.250Q62.200-52.900 62.200-48.300Q62.200-44.400 60.550-41.500Q58.900-38.600 55.400-36.800Q51.900-35 46.100-34.400L46.100-32.700Q55.700-32.100 60.300-28.100Q64.900-24.100 64.900-17.300Q64.900-11.500 61.800-7.700Q58.700-3.900 52.700-1.950Q46.700 0 37.900 0M22.300-28.500L22.300-12.800L37.300-12.800Q43.400-12.800 46.300-14.550Q49.200-16.300 49.200-20.100Q49.200-24.300 45.700-26.400Q42.200-28.500 35-28.500L22.300-28.500M22.300-53.400L22.300-38.300L32.800-38.300Q39.900-38.300 43.200-40.250Q46.500-42.200 46.500-46.100Q46.500-49.900 43.450-51.650Q40.400-53.400 34.200-53.400 M98.500 1.400Q91.900 1.400 86.700-0.350Q81.500-2.100 77.850-5.500Q74.200-8.900 72.300-13.900Q70.400-18.900 70.400-25.400Q70.400-31.700 72.250-37Q74.100-42.300 77.550-46.150Q81-50 86.050-52.100Q91.100-54.200 97.400-54.200Q103.800-54.200 108.650-52.150Q113.500-50.100 116.650-46.100Q119.800-42.100 121.300-36.350Q122.800-30.600 122.300-23.200L85.900-22.900Q86.400-16.800 89.400-13.800Q92.900-10.100 98.400-10.100Q101.100-10.100 102.900-10.850Q104.700-11.600 105.850-12.750Q107-13.900 107.650-15.300Q108.300-16.700 108.700-18L122.700-15Q121.900-11.300 120.150-8.300Q118.400-5.300 115.450-3.100Q112.500-0.900 108.350 0.250Q104.200 1.400 98.500 1.400M86.300-31.300L107.600-31.500Q107.600-34 106.800-35.900Q105.500-39 103-40.450Q100.500-41.900 97.600-41.900Q94.100-41.900 91.450-40Q88.800-38.100 87.300-34.500Q86.700-33.100 86.300-31.300 M146.200 0L130.100 0L130.100-52.800L143.100-52.800L143.300-37.300L145.300-37.300Q146.600-42.900 149-46.700Q151.400-50.500 155.100-52.350Q158.800-54.200 163.800-54.200Q173.100-54.200 177.950-47.700Q182.800-41.200 182.800-27L182.800 0L166.600 0L166.600-25.200Q166.600-33.400 164.250-37.150Q161.900-40.900 157.300-40.900Q153.500-40.900 151.050-38.600Q148.600-36.300 147.400-32.500Q146.200-28.700 146.200-24 M213 1.300Q203.700 1.300 199.300-3.650Q194.900-8.600 194.900-19.500L194.900-40.200L187.400-40.200L187.700-52.700L193.100-52.700Q196.300-52.800 197.950-53.700Q199.600-54.600 200-57.100L201.300-64.500L210.400-64.500L210.400-52.800L223.100-52.800L223.100-39.700L210.400-39.700L210.400-20.200Q210.400-16.800 212.050-15.200Q213.700-13.600 217.100-13.600Q219-13.600 220.700-14Q222.400-14.400 223.500-15.100L223.500-0.200Q220.300 0.800 217.650 1.050Q215 1.300 213 1.300 M255.300 1.400Q247.300 1.400 241.150-1.700Q235-4.800 231.500-11Q228-17.200 228-26.500Q228-35.800 231.500-41.950Q235-48.100 241.200-51.150Q247.400-54.200 255.400-54.200Q263.400-54.200 269.600-51.100Q275.800-48 279.300-41.850Q282.800-35.700 282.800-26.400Q282.800-16.900 279.200-10.700Q275.600-4.500 269.350-1.550Q263.100 1.400 255.300 1.400M255.800-10.300Q259.400-10.300 261.800-11.950Q264.200-13.600 265.400-17Q266.600-20.400 266.600-25.400Q266.600-30.700 265.300-34.350Q264-38 261.450-39.950Q258.900-41.900 254.900-41.900Q251.500-41.900 249.050-40.250Q246.600-38.600 245.400-35.200Q244.200-31.800 244.200-26.700Q244.200-18.500 247.250-14.400Q250.300-10.300 255.800-10.300" fill="#221C1E"/></g>
</svg>
